<?xml version="1.0" encoding="utf-8"?>
<!-- Svg Vector Icons : http://www.onlinewebfonts.com/icon -->
<!DOCTYPE svg PUBLIC "-//W3C//DTD SVG 1.1//EN" "http://www.w3.org/Graphics/SVG/1.1/DTD/svg11.dtd">
<svg version="1.1" xmlns="http://www.w3.org/2000/svg" xmlns:xlink="http://www.w3.org/1999/xlink" x="0px" y="0px" viewBox="0 0 1000 1000" enable-background="new 0 0 1000 1000" xml:space="preserve">
<metadata> Svg Vector Icons : http://www.onlinewebfonts.com/icon </metadata>
<g><path d="M293,146.7C146.7,223.3,53,374.8,53,543c0,246.9,200.2,447,447,447c246.9,0,447-200.1,447-447c0-165.7-90.9-315.4-233.9-393.1c-14.5-7.9-32.7-2.5-40.6,12c-7.9,14.5-2.5,32.7,12,40.6C808.4,269.8,887.2,399.4,887.2,543c0,213.8-173.3,387.1-387.2,387.1c-213.8,0-387.1-173.3-387.1-387.1c0-145.6,81.1-276.9,207.9-343.2c14.7-7.7,20.3-25.8,12.6-40.4C325.7,144.7,307.6,139,293,146.7L293,146.7z M471.1,39.9v251.5c0,16.5,13.4,29.9,29.9,29.9S531,308,531,291.5V39.9C531,23.4,517.6,10,501,10S471.1,23.4,471.1,39.9L471.1,39.9z"/></g>
</svg>